<svg xmlns="http://www.w3.org/2000/svg" viewBox="0 0 567.24 118.02"><defs><style>.cls-1{fill:#fff;}.cls-2{fill:none;stroke:#fff;stroke-linecap:round;stroke-miterlimit:10;stroke-width:2px;}</style></defs><title>Horizontal HCPV logo white</title><g id="art"><path class="cls-1" d="M227.28,34.61c0-19.07,13.95-31.09,32.26-31.09,6.8,0,13.44,2.1,17.39,5.46,2,1.76,2.35,3.19,2.35,4.37a4.84,4.84,0,0,1-5,4.87c-1.09,0-2.18-.34-4-1.68a17,17,0,0,0-10.75-3.7c-12.27,0-20.58,9.49-20.58,21.76,0,12.94,7.9,21.93,20.16,21.93a17.77,17.77,0,0,0,12.44-4.62c1.76-1.51,2.86-1.76,3.95-1.76a4.48,4.48,0,0,1,4.71,4.62A6.5,6.5,0,0,1,278,59.31C274.25,63,267.52,66,259,66,240.47,66,227.28,53.18,227.28,34.61Z" transform="translate(-3.1 0.41)"/><path class="cls-1" d="M296.5,47.55c.42,5.71,5.63,9.91,11.51,9.91A13.12,13.12,0,0,0,317.25,54a4.91,4.91,0,0,1,3.45-1.43,3.88,3.88,0,0,1,4,4A5.13,5.13,0,0,1,323,60.24c-3.95,3.78-8.48,5.46-15,5.46-12.43,0-21.68-8-21.68-21.09S295.58,23,307.76,23c9.75,0,17.64,5.54,19.24,17.39a21,21,0,0,1,.17,2.1c0,3.53-1.93,5-5.29,5Zm20.67-7.23c0-5.21-2.94-9.75-9.49-9.75-6,0-10.75,4.12-11.17,9.75Z" transform="translate(-3.1 0.41)"/><path class="cls-1" d="M340.34,65.28c-1.68,0-5-.84-5-5.63V28.82c0-4.54,3.28-5.38,4.79-5.38s4.87.84,4.87,5.38v2.1h.17c1.6-4.37,5.63-7.9,10.5-7.9,3,0,5.21,1.51,5.21,4.45,0,2.6-1.6,4.87-5.46,4.87-6.38,0-10,4.79-10,11.51V59.65C345.39,64.44,342,65.28,340.34,65.28Z" transform="translate(-3.1 0.41)"/><path class="cls-1" d="M385.88,65.36c-10.67,0-13-6.55-13-14.28V32.26h-3.28c-3.87,0-4.54-2.69-4.54-4s.67-4,4.54-4h3.28v-7c0-4.62,3.28-5.46,5-5.46s5,.84,5,5.46v7h6.3c3.87,0,4.54,2.69,4.54,4s-.67,4-4.54,4h-6.3V51c0,3.95,1.34,6,3.87,6a12.94,12.94,0,0,0,1.6-.17,7.39,7.39,0,0,1,1.18-.08,3.68,3.68,0,0,1,3.87,3.78,4.11,4.11,0,0,1-2.44,3.7A11.35,11.35,0,0,1,385.88,65.36Z" transform="translate(-3.1 0.41)"/><path class="cls-1" d="M407,16.55a6.21,6.21,0,0,1-6.39-6,6.21,6.21,0,0,1,6.39-6c3.7,0,6.55,2.6,6.55,6S410.65,16.55,407,16.55ZM407,65.28c-1.68,0-5-.84-5-5.63V29.07c0-4.79,3.36-5.63,5-5.63s5,.84,5,5.63V59.65C412.08,64.44,408.72,65.28,407,65.28Z" transform="translate(-3.1 0.41)"/><path class="cls-1" d="M423.76,32.26c-3.87,0-4.54-2.69-4.54-4s.67-4,4.54-4h3.86v-6C427.62,8.57,431.4,0,443.08,0c4.2,0,6.38,1.43,6.38,4.45,0,2.27-1.51,4.12-4.7,4.12-5.46,0-7.06,3.44-7.06,9.07V24.2h5.54c3.87,0,4.54,2.69,4.54,4s-.67,4-4.54,4H437.7V59.65c0,4.79-3.36,5.63-5,5.63s-5-.84-5-5.63V32.26Z" transform="translate(-3.1 0.41)"/><path class="cls-1" d="M462.06,16.55a6.21,6.21,0,0,1-6.38-6,6.21,6.21,0,0,1,6.38-6c3.7,0,6.55,2.6,6.55,6S465.76,16.55,462.06,16.55Zm.08,48.73c-1.68,0-5-.84-5-5.63V29.07c0-4.79,3.36-5.63,5-5.63s5,.84,5,5.63V59.65C467.18,64.44,463.82,65.28,462.14,65.28Z" transform="translate(-3.1 0.41)"/><path class="cls-1" d="M487.18,47.55c.42,5.71,5.63,9.91,11.51,9.91A13.12,13.12,0,0,0,507.93,54a4.92,4.92,0,0,1,3.45-1.43,3.88,3.88,0,0,1,4,4,5.12,5.12,0,0,1-1.68,3.61c-3.95,3.78-8.48,5.46-15,5.46-12.44,0-21.68-8-21.68-21.09S486.25,23,498.43,23c9.74,0,17.64,5.54,19.24,17.39a21,21,0,0,1,.17,2.1c0,3.53-1.93,5-5.29,5Zm20.67-7.23c0-5.21-2.94-9.75-9.49-9.75-6,0-10.75,4.12-11.17,9.75Z" transform="translate(-3.1 0.41)"/><path class="cls-1" d="M565.55,65.28c-1.51,0-4.79-.76-4.79-5.29V58.47h-.17c-2.77,4.62-8.23,7.22-13.86,7.22-12.27,0-19.83-9.75-19.83-21.51C526.91,32.26,535,23,546.48,23A16.51,16.51,0,0,1,560,29.32h.25V5.88c0-4.79,3.36-5.63,5-5.63s5,.84,5,5.63V60C570.34,64.52,567.06,65.28,565.55,65.28Zm-16.8-8c7.39,0,11.85-6.64,11.85-12.94s-4.45-13.11-11.85-13.11c-7.81,0-11.59,6.64-11.59,12.94S540.93,57.3,548.75,57.3Z" transform="translate(-3.1 0.41)"/><path class="cls-1" d="M242.19,81.19c6.91,0,11.47,3,11.47,9.07s-4.66,9.12-11.57,9.12H236V113.6a1.74,1.74,0,1,1-3.46,0V83.26a1.81,1.81,0,0,1,2.06-2.07ZM236,96.46h5.86c5.38,0,8.3-2.16,8.3-6.19s-3.07-6.1-8.3-6.1H236Z" transform="translate(-3.1 0.41)"/><path class="cls-1" d="M273.53,115.52a1.58,1.58,0,0,1-1.63-1.78V97.66c0-.87,0-2.83-.1-3.6a1.48,1.48,0,0,1,1.54-1.68c.53,0,1.54.19,1.58,1.68l.1,2.5h.1a8,8,0,0,1,7.2-4.42,3.88,3.88,0,0,1,1.39.19,1.35,1.35,0,0,1,.91,1.3c0,1.06-.72,1.59-1.78,1.59-.48,0-.77,0-1.11,0-3.46,0-6.57,2.5-6.57,8.5v10.08A1.58,1.58,0,0,1,273.53,115.52Z" transform="translate(-3.1 0.41)"/><path class="cls-1" d="M301.75,104.81A8.2,8.2,0,0,0,310,113a8.46,8.46,0,0,0,6.48-2.93,1.64,1.64,0,0,1,1.25-.62,1.42,1.42,0,0,1,1.49,1.44,1.66,1.66,0,0,1-.48,1.15,11.75,11.75,0,0,1-20.35-8.07c0-6.77,4.94-11.81,11.33-11.81s10.75,4.37,10.75,11c0,1.1-.58,1.68-1.78,1.68Zm15.36-2.59c-.19-4.22-2.79-7.34-7.44-7.34a8,8,0,0,0-7.87,7.34Z" transform="translate(-3.1 0.41)"/><path class="cls-1" d="M338.28,104.91a1.38,1.38,0,1,1,0-2.73h8.36a1.38,1.38,0,1,1,0,2.73Z" transform="translate(-3.1 0.41)"/><path class="cls-1" d="M382.2,116c-10.13,0-17.71-7.54-17.71-17.86s7.58-17.86,17.71-17.86,17.71,7.54,17.71,17.86S392.33,116,382.2,116Zm0-32.69c-8.74,0-14.06,6.91-14.06,14.84S373.47,113,382.2,113s14.07-6.87,14.07-14.79S390.94,83.35,382.2,83.35Z" transform="translate(-3.1 0.41)"/><path class="cls-1" d="M441,115.52a2.28,2.28,0,0,1-2.26-1.87L433.13,97H433l-5.47,16.66a2.3,2.3,0,0,1-4.51,0l-6.19-18.91a3,3,0,0,1-.14-.77,1.58,1.58,0,0,1,1.73-1.58A1.62,1.62,0,0,1,420,93.72L425.35,111h.1L431.11,94a2.06,2.06,0,0,1,4,0L440.91,111h.1l5.28-17.23a1.59,1.59,0,0,1,1.58-1.34,1.55,1.55,0,0,1,1.68,1.54,3.24,3.24,0,0,1-.14.82l-6.19,18.91A2.28,2.28,0,0,1,441,115.52Z" transform="translate(-3.1 0.41)"/><path class="cls-1" d="M470.14,96.56h.1c1.25-2.59,4.51-4.42,7.68-4.42,5.71,0,8.54,3.7,8.54,9.27v12.34a1.64,1.64,0,1,1-3.26,0v-11c0-4.7-1.39-7.87-6.1-7.87-3.46,0-6.82,2.78-6.82,8.79v10.08a1.64,1.64,0,1,1-3.26,0V97.66c0-.87,0-2.83-.1-3.6a1.48,1.48,0,0,1,1.54-1.68c.53,0,1.54.19,1.58,1.68Z" transform="translate(-3.1 0.41)"/><path class="cls-1" d="M508.34,104.81a8.2,8.2,0,0,0,8.21,8.16A8.45,8.45,0,0,0,523,110a1.64,1.64,0,0,1,1.25-.62,1.42,1.42,0,0,1,1.49,1.44,1.66,1.66,0,0,1-.48,1.15,11.75,11.75,0,0,1-20.35-8.07c0-6.77,4.95-11.81,11.33-11.81s10.75,4.37,10.75,11c0,1.1-.58,1.68-1.78,1.68Zm15.36-2.59c-.19-4.22-2.78-7.34-7.44-7.34a8,8,0,0,0-7.87,7.34Z" transform="translate(-3.1 0.41)"/><path class="cls-1" d="M565.9,115.52a1.57,1.57,0,0,1-1.63-1.78v-2.35h-.1a10.37,10.37,0,0,1-8.5,4.37c-7,0-11.62-5.19-11.62-11.81s4.61-11.81,11.62-11.81a10.21,10.21,0,0,1,8.5,4.46h.1V80.33a1.64,1.64,0,1,1,3.26,0v33.41A1.57,1.57,0,0,1,565.9,115.52ZM556,113c5,0,8.64-3.89,8.64-9S561,94.88,556,94.88c-5.42,0-8.5,4.08-8.5,9.07S550.59,113,556,113Z" transform="translate(-3.1 0.41)"/><path class="cls-1" d="M23.21,96l2.64.31c1.19.13,1.32,1.13,1.32,1.76v3.14H15V98c0-.63.13-1.62,1.32-1.76L18.93,96V93.29H3.1V96l2.64.31c1.18.13,1.31,1.13,1.31,1.76v10.3c0,.64-.13,1.64-1.31,1.77l-2.64.32v2.69H18.93v-2.69l-2.64-.32C15.1,110,15,109,15,108.35v-3.14h12.2v3.14c0,.64-.13,1.64-1.32,1.77l-2.64.32v2.69H39v-2.69l-2.64-.32c-1.19-.13-1.32-1.13-1.32-1.77V98c0-.63.13-1.62,1.32-1.76L39,96V93.29H23.21Z" transform="translate(-3.1 0.41)"/><path class="cls-1" d="M128.85,93.29H109.29V96l2.34.25c.84.1,1.38.46,1.38,1.62v10.52c0,.64-.12,1.64-1.31,1.77l-2.64.32v2.69h19.8c7.09,0,12.91-2.87,12.91-9.93S135.93,93.29,128.85,93.29Zm-1.44,16h-6.64V97.08h6.64c3.91,0,5.24,1.86,5.24,6.11S131.32,109.31,127.41,109.31Z" transform="translate(-3.1 0.41)"/><path class="cls-1" d="M175.06,110.15a2.62,2.62,0,0,1-2-1.56l-9.12-14c-.66-1-1.13-1.31-2.1-1.31h-15V96l3.58.41A1,1,0,0,1,151,98l-6.74,11a1.86,1.86,0,0,1-1.39,1.07l-2.68.31v2.69h12.66v-2.69l-2.18-.22c-.93-.1-1.43-.75-1-1.52l1-1.66h12.15l.9,1.37c.79,1.21-.21,1.7-1.06,1.79l-2.24.23v2.69h17.12v-2.69Zm-22.2-6.62,3.74-6.11,4,6.11Z" transform="translate(-3.1 0.41)"/><path class="cls-1" d="M95.15,96l2.64.31c1.19.13,1.32,1.13,1.32,1.76V108L88.65,94.13c-.47-.63-.88-.84-2-.84H73.06V96l2.64.31C76.89,96.42,77,97.41,77,98v10.3c0,.64-.13,1.64-1.32,1.77l-2.64.32v2.69H85.71v-2.69l-2.64-.32c-1.19-.13-1.32-1.13-1.32-1.77V98.42l10.46,13.86c.48.64.88.85,2,.85h9.63V98c0-.63.13-1.62,1.32-1.76L107.8,96V93.29H95.15Z" transform="translate(-3.1 0.41)"/><path class="cls-1" d="M56,92.62c-12.87,0-16.19,5.63-16.19,10.58S43.15,113.81,56,113.81s16.19-5.66,16.19-10.61S68.89,92.62,56,92.62ZM56,110c-5,0-7.07-2.1-7.07-6.83S51,96.38,56,96.38s7.06,2.09,7.06,6.81S61,110,56,110Z" transform="translate(-3.1 0.41)"/><path class="cls-1" d="M112.27,9.85c-2.18,9.72-3,14.19-4.81,21.22-1.7,6.76-3,13-5.29,16.06a10.24,10.24,0,0,1-7.49,4,33.26,33.26,0,0,1-4.23.19,33.36,33.36,0,0,1-4.23-.19,10.25,10.25,0,0,1-7.49-4c-2.28-3-3.59-9.3-5.29-16.06-1.77-7-2.63-11.5-4.81-21.22,0,0-2.17.09-3.13.15-1.3.09-2.32.2-3.43.35,0,0,1.25,20,1.82,28.46.6,8.91,1.64,23.92,2.62,35.25,0,0,1.82.29,4.86.46,3.19.18,4.61.21,4.61.21,1.31-5,2.93-11.92,4.78-14.88A6.36,6.36,0,0,1,85.85,57a30.34,30.34,0,0,1,4.59-.3h0A30.37,30.37,0,0,1,95,57a6.36,6.36,0,0,1,5.11,2.84c1.84,3,3.47,9.88,4.78,14.88,0,0,1.42,0,4.6-.21,3-.17,4.86-.46,4.86-.46,1-11.34,2-26.34,2.63-35.25.56-8.47,1.82-28.46,1.82-28.46-1.11-.15-2.13-.26-3.43-.35C114.44,9.94,112.27,9.85,112.27,9.85Z" transform="translate(-3.1 0.41)"/><path class="cls-1" d="M137.46,21.65C136.17,9,127.69,6.28,120.26,5a144.7,144.7,0,0,0-14.68-1.34c-3.73-.24-12.53-.36-15.13-.36S79,3.46,75.31,3.69A144.65,144.65,0,0,0,60.63,5C53.19,6.28,44.72,9,43.43,21.65A119.29,119.29,0,0,0,43,34.49a165.52,165.52,0,0,0,1.19,17.24c.27,2.58,1.35,10.34,2.74,14.35,1.9,5.52,3.61,7.12,5.63,8.76,3.68,3,9.74,3.93,11,4.16,6.84,1.23,20.7,1.45,26.81,1.45s20-.21,26.81-1.45c1.3-.23,7.36-1.15,11-4.16,2-1.64,3.72-3.24,5.63-8.76,1.38-4,2.46-11.77,2.73-14.35a164.45,164.45,0,0,0,1.19-17.24A118.88,118.88,0,0,0,137.46,21.65ZM132.8,43c-.75,10.14-1.65,16.22-2.95,20.61-1.13,3.84-2.54,6.42-4.58,8.28-3.42,3.09-8.13,3.76-10.9,4.17-6,.88-16,1.19-23.93,1.2s-18-.31-23.94-1.2C63.75,75.63,59,75,55.61,71.87c-2-1.86-3.45-4.44-4.58-8.28-1.29-4.38-2.2-10.47-2.95-20.61a132.6,132.6,0,0,1,.32-21.34c1-7.94,5-11.93,13.4-13.44A121.74,121.74,0,0,1,76.08,6.75c4-.28,10.66-.41,14.37-.38s10.34.1,14.37.38A121.58,121.58,0,0,1,119.08,8.2c8.45,1.51,12.39,5.5,13.4,13.44A132.36,132.36,0,0,1,132.8,43Z" transform="translate(-3.1 0.41)"/><line class="cls-2" x1="200.56" y1="1" x2="200.56" y2="117.02"/></g></svg>